<svg width="1680" height="240" viewBox="0 0 1680 240" fill="none" xmlns="http://www.w3.org/2000/svg">
<g clip-path="url(#clip0_4_67)">
<path d="M380 240C416.819 240 446.667 210.152 446.667 173.333C446.667 136.514 416.819 106.667 380 106.667C343.181 106.667 313.333 136.514 313.333 173.333C313.333 210.152 343.181 240 380 240Z" fill="#E1E8ED"/>
<path d="M340 73.3333C340 51.24 357.907 33.3333 380 33.3333C402.087 33.3333 420 51.24 420 73.3333C420 95.4267 402.087 113.333 380 113.333C357.907 113.333 340 95.4267 340 73.3333Z" fill="#E1E8ED"/>
<path d="M413.333 40C413.333 47.36 407.36 53.3333 400 53.3333H360C352.64 53.3333 346.667 47.36 346.667 40V13.3333C346.667 5.97333 352.64 0 360 0H400C407.36 0 413.333 5.97333 413.333 13.3333V40Z" fill="#414042"/>
<path d="M426.667 46.6667C426.667 50.3467 423.687 53.3333 420 53.3333H340C336.32 53.3333 333.333 50.3467 333.333 46.6667C333.333 42.9867 336.32 40 340 40H420C423.687 40 426.667 42.9867 426.667 46.6667Z" fill="#231F20"/>
<path d="M410 100H350C344.473 100 340 104.473 340 110C340 114.347 342.793 118.013 346.667 119.387V166.667C346.667 170.353 349.653 173.333 353.333 173.333H360C363.68 173.333 366.667 170.353 366.667 166.667V120H410C415.52 120 420 115.527 420 110C420 104.473 415.52 100 410 100Z" fill="#DD2E44"/>
<path d="M386.667 160C386.667 163.687 383.687 166.667 380 166.667C376.32 166.667 373.333 163.687 373.333 160C373.333 156.313 376.32 153.333 380 153.333C383.687 153.333 386.667 156.313 386.667 160ZM386.667 193.333C386.667 197.02 383.687 200 380 200C376.32 200 373.333 197.02 373.333 193.333C373.333 189.647 376.32 186.667 380 186.667C383.687 186.667 386.667 189.647 386.667 193.333Z" fill="#414042"/>
<path d="M386.667 80C386.667 83.6867 383.687 86.6667 380 86.6667C376.32 86.6667 373.333 83.6867 373.333 80C373.333 76.3133 376.32 73.3333 380 73.3333C383.687 73.3333 386.667 76.3133 386.667 80Z" fill="#F4900C"/>
<path d="M366.667 66.6667C366.667 70.3533 363.68 73.3333 360 73.3333C356.32 73.3333 353.333 70.3533 353.333 66.6667C353.333 62.98 356.32 60 360 60C363.68 60 366.667 62.98 366.667 66.6667ZM406.667 66.6667C406.667 70.3533 403.687 73.3333 400 73.3333C396.313 73.3333 393.333 70.3533 393.333 66.6667C393.333 62.98 396.313 60 400 60C403.687 60 406.667 62.98 406.667 66.6667Z" fill="#414042"/>
<path d="M329.293 133.873L306.28 124.013L302.633 104.907C301.94 101.293 298.473 98.9267 294.833 99.6067C291.22 100.3 288.847 103.787 289.533 107.407L291.493 117.673L282.627 113.873C279.24 112.413 275.32 113.993 273.873 117.373C272.42 120.76 273.993 124.68 277.373 126.127L282.327 128.247L275.287 135.287C272.68 137.893 272.68 142.107 275.287 144.713C276.587 146.013 278.293 146.667 280 146.667C281.707 146.667 283.413 146.013 284.713 144.713L295.52 133.907L324.04 146.127C324.893 146.5 325.787 146.667 326.667 146.667C329.253 146.667 331.713 145.153 332.793 142.627C334.247 139.24 332.673 135.327 329.293 133.873ZM482.107 113.673L472.34 110.42L478.04 104.72C480.647 102.113 480.647 97.9 478.04 95.2933C475.433 92.6867 471.22 92.6867 468.613 95.2933L463.607 100.3L459.793 85.0533C458.9 81.4867 455.273 79.2867 451.713 80.2067C448.14 81.1 445.967 84.72 446.867 88.2933L452.613 111.293L428.613 135.293C426.007 137.9 426.007 142.113 428.613 144.72C429.92 146.013 431.627 146.667 433.333 146.667C435.04 146.667 436.747 146.013 438.047 144.713L461.8 120.96L477.887 126.327C478.593 126.56 479.307 126.667 480 126.667C482.793 126.667 485.393 124.9 486.32 122.107C487.487 118.613 485.6 114.84 482.107 113.673Z" fill="#FFAC33"/>
<path d="M327.2 14.0867C326.18 12.56 324.113 12.14 322.58 13.1667L316.667 17.1067V10C316.667 8.16 315.173 6.66666 313.333 6.66666C311.493 6.66666 310 8.16 310 10V17.1067L304.087 13.1667C302.547 12.14 300.487 12.56 299.467 14.0867C298.447 15.6133 298.86 17.6867 300.393 18.7067L307.327 23.3333L300.393 27.9533C298.86 28.98 298.447 31.0467 299.467 32.58C300.107 33.5467 301.167 34.0667 302.247 34.0667C302.88 34.0667 303.52 33.8867 304.093 33.5067L310 29.56V36.6667C310 38.5067 311.493 40 313.333 40C315.173 40 316.667 38.5067 316.667 36.6667V29.56L322.58 33.5C323.147 33.88 323.793 34.06 324.427 34.06C325.507 34.06 326.56 33.54 327.207 32.5733C328.227 31.0467 327.813 28.9733 326.28 27.9533L319.34 23.3333L326.273 18.7133C327.807 17.6867 328.22 15.62 327.2 14.0867ZM300.533 60.7533C299.513 59.2267 297.447 58.8067 295.913 59.8333L290 63.7733V56.6667C290 54.8267 288.507 53.3333 286.667 53.3333C284.827 53.3333 283.333 54.8267 283.333 56.6667V63.7733L277.42 59.8333C275.88 58.8067 273.82 59.2267 272.8 60.7533C271.78 62.28 272.193 64.3533 273.727 65.3733L280.66 69.9933L273.727 74.6133C272.193 75.6333 271.78 77.7067 272.8 79.2333C273.44 80.2 274.5 80.72 275.58 80.72C276.213 80.72 276.853 80.54 277.427 80.16L283.333 76.2267V83.3333C283.333 85.1733 284.827 86.6667 286.667 86.6667C288.507 86.6667 290 85.1733 290 83.3333V76.2267L295.913 80.1667C296.48 80.5467 297.127 80.7267 297.76 80.7267C298.84 80.7267 299.893 80.2067 300.54 79.24C301.56 77.7133 301.147 75.64 299.613 74.62L292.673 70L299.607 65.38C301.14 64.3533 301.553 62.2867 300.533 60.7533ZM300.533 174.087C299.513 172.56 297.447 172.14 295.913 173.16L290 177.107V170C290 168.16 288.507 166.667 286.667 166.667C284.827 166.667 283.333 168.16 283.333 170V177.107L277.42 173.167C275.88 172.147 273.813 172.56 272.8 174.093C271.78 175.62 272.193 177.693 273.727 178.713L280.66 183.333L273.727 187.953C272.193 188.973 271.78 191.047 272.8 192.573C273.44 193.54 274.5 194.06 275.58 194.06C276.213 194.06 276.853 193.88 277.427 193.5L283.333 189.56V196.667C283.333 198.507 284.827 200 286.667 200C288.507 200 290 198.507 290 196.667V189.56L295.913 193.5C296.48 193.88 297.127 194.06 297.76 194.06C298.84 194.06 299.893 193.54 300.54 192.573C301.56 191.047 301.147 188.973 299.613 187.953L292.673 183.333L299.607 178.713C301.14 177.687 301.553 175.62 300.533 174.087ZM486.007 63.3333L492.94 58.7133C494.473 57.6933 494.887 55.62 493.867 54.0933C492.847 52.5667 490.78 52.1467 489.247 53.1667L483.333 57.1067V50C483.333 48.16 481.84 46.6667 480 46.6667C478.16 46.6667 476.667 48.16 476.667 50V57.1067L470.753 53.1667C469.213 52.1467 467.147 52.56 466.133 54.0933C465.113 55.62 465.527 57.6933 467.06 58.7133L473.993 63.3333L467.06 67.9533C465.527 68.9733 465.113 71.0467 466.133 72.5733C466.773 73.54 467.833 74.06 468.913 74.06C469.547 74.06 470.187 73.88 470.76 73.5L476.673 69.56V76.6667C476.673 78.5067 478.167 80 480.007 80C481.847 80 483.34 78.5067 483.34 76.6667V69.56L489.253 73.5C489.82 73.88 490.467 74.06 491.1 74.06C492.18 74.06 493.233 73.54 493.88 72.5733C494.9 71.0467 494.487 68.9733 492.953 67.9533L486.007 63.3333ZM487.2 154.087C486.18 152.56 484.113 152.14 482.58 153.16L476.667 157.107V150C476.667 148.16 475.173 146.667 473.333 146.667C471.493 146.667 470 148.16 470 150V157.107L464.087 153.167C462.547 152.147 460.48 152.56 459.467 154.093C458.447 155.62 458.86 157.693 460.393 158.713L467.327 163.333L460.393 167.953C458.86 168.973 458.447 171.047 459.467 172.573C460.107 173.54 461.167 174.06 462.247 174.06C462.88 174.06 463.52 173.88 464.093 173.5L470.007 169.56V176.667C470.007 178.507 471.5 180 473.34 180C475.18 180 476.673 178.507 476.673 176.667V169.56L482.587 173.5C483.153 173.88 483.8 174.06 484.433 174.06C485.513 174.06 486.567 173.54 487.213 172.573C488.233 171.047 487.82 168.973 486.287 167.953L479.353 163.333L486.287 158.713C487.807 157.687 488.22 155.62 487.2 154.087ZM459.607 27.9533L452.673 23.3333L459.607 18.7133C461.14 17.6933 461.553 15.62 460.533 14.0933C459.513 12.5667 457.447 12.1467 455.913 13.1667L450 17.1067V10C450 8.16 448.507 6.66666 446.667 6.66666C444.827 6.66666 443.333 8.16 443.333 10V17.1067L437.42 13.1667C435.88 12.1467 433.813 12.56 432.8 14.0933C431.78 15.62 432.193 17.6933 433.727 18.7133L440.66 23.3333L433.727 27.9533C432.193 28.9733 431.78 31.0467 432.8 32.5733C433.44 33.54 434.5 34.06 435.58 34.06C436.213 34.06 436.853 33.88 437.427 33.5L443.333 29.56V36.6667C443.333 38.5067 444.827 40 446.667 40C448.507 40 450 38.5067 450 36.6667V29.56L455.913 33.5C456.48 33.88 457.127 34.06 457.76 34.06C458.84 34.06 459.893 33.54 460.54 32.5733C461.553 31.0467 461.14 28.98 459.607 27.9533Z" fill="#88C9F9"/>
</g>
<path d="M595.322 173.728C587.354 173.728 579.626 172.672 572.138 170.56C564.746 168.352 558.794 165.52 554.282 162.064L562.202 144.496C566.522 147.664 571.658 150.208 577.61 152.128C583.562 154.048 589.514 155.008 595.466 155.008C602.09 155.008 606.986 154.048 610.154 152.128C613.322 150.112 614.906 147.472 614.906 144.208C614.906 141.808 613.946 139.84 612.026 138.304C610.202 136.672 607.802 135.376 604.826 134.416C601.946 133.456 598.01 132.4 593.018 131.248C585.338 129.424 579.05 127.6 574.154 125.776C569.258 123.952 565.034 121.024 561.482 116.992C558.026 112.96 556.298 107.584 556.298 100.864C556.298 95.008 557.882 89.728 561.05 85.024C564.218 80.224 568.97 76.432 575.306 73.648C581.738 70.864 589.562 69.472 598.778 69.472C605.21 69.472 611.498 70.24 617.642 71.776C623.786 73.312 629.162 75.52 633.77 78.4L626.57 96.112C617.258 90.832 607.946 88.192 598.634 88.192C592.106 88.192 587.258 89.248 584.09 91.36C581.018 93.472 579.482 96.256 579.482 99.712C579.482 103.168 581.258 105.76 584.81 107.488C588.458 109.12 593.978 110.752 601.37 112.384C609.05 114.208 615.338 116.032 620.234 117.856C625.13 119.68 629.306 122.56 632.762 126.496C636.314 130.432 638.09 135.76 638.09 142.48C638.09 148.24 636.458 153.52 633.194 158.32C630.026 163.024 625.226 166.768 618.794 169.552C612.362 172.336 604.538 173.728 595.322 173.728ZM699.534 93.376C709.134 93.376 716.862 96.256 722.718 102.016C728.67 107.776 731.646 116.32 731.646 127.648V172H709.182V131.104C709.182 124.96 707.838 120.4 705.15 117.424C702.462 114.352 698.574 112.816 693.486 112.816C687.822 112.816 683.31 114.592 679.95 118.144C676.59 121.6 674.91 126.784 674.91 133.696V172H652.446V94.528H673.902V103.6C676.878 100.336 680.574 97.84 684.99 96.112C689.406 94.288 694.254 93.376 699.534 93.376ZM789.716 173.152C781.556 173.152 774.212 171.472 767.684 168.112C761.252 164.656 756.212 159.904 752.564 153.856C748.916 147.808 747.092 140.944 747.092 133.264C747.092 125.584 748.916 118.72 752.564 112.672C756.212 106.624 761.252 101.92 767.684 98.56C774.212 95.104 781.556 93.376 789.716 93.376C797.876 93.376 805.172 95.104 811.604 98.56C818.036 101.92 823.076 106.624 826.724 112.672C830.372 118.72 832.196 125.584 832.196 133.264C832.196 140.944 830.372 147.808 826.724 153.856C823.076 159.904 818.036 164.656 811.604 168.112C805.172 171.472 797.876 173.152 789.716 173.152ZM789.716 154.72C795.476 154.72 800.18 152.8 803.828 148.96C807.572 145.024 809.444 139.792 809.444 133.264C809.444 126.736 807.572 121.552 803.828 117.712C800.18 113.776 795.476 111.808 789.716 111.808C783.956 111.808 779.204 113.776 775.46 117.712C771.716 121.552 769.844 126.736 769.844 133.264C769.844 139.792 771.716 145.024 775.46 148.96C779.204 152.8 783.956 154.72 789.716 154.72ZM969.518 94.528L941.438 172H919.838L902.414 123.904L884.414 172H862.814L834.878 94.528H856.046L874.334 146.944L893.342 94.528H912.35L930.782 146.944L949.646 94.528H969.518ZM1006.7 96.256H1026.57V113.536H1007.27V172H984.807V113.536H972.855V96.256H984.807V92.8C984.807 83.968 987.399 76.96 992.583 71.776C997.863 66.592 1005.26 64 1014.76 64C1018.12 64 1021.29 64.384 1024.26 65.152C1027.34 65.824 1029.88 66.832 1031.9 68.176L1025.99 84.448C1023.4 82.624 1020.38 81.712 1016.92 81.712C1010.1 81.712 1006.7 85.456 1006.7 92.944V96.256ZM1037.8 65.152H1060.26V172H1037.8V65.152ZM1112.46 93.376C1124.46 93.376 1133.68 96.256 1140.11 102.016C1146.54 107.68 1149.76 116.272 1149.76 127.792V172H1128.73V162.352C1124.51 169.552 1116.64 173.152 1105.12 173.152C1099.16 173.152 1093.98 172.144 1089.56 170.128C1085.24 168.112 1081.93 165.328 1079.63 161.776C1077.32 158.224 1076.17 154.192 1076.17 149.68C1076.17 142.48 1078.86 136.816 1084.24 132.688C1089.71 128.56 1098.11 126.496 1109.44 126.496H1127.29C1127.29 121.6 1125.8 117.856 1122.83 115.264C1119.85 112.576 1115.39 111.232 1109.44 111.232C1105.31 111.232 1101.23 111.904 1097.2 113.248C1093.26 114.496 1089.9 116.224 1087.12 118.432L1079.05 102.736C1083.28 99.76 1088.32 97.456 1094.17 95.824C1100.12 94.192 1106.22 93.376 1112.46 93.376ZM1110.73 158.032C1114.57 158.032 1117.98 157.168 1120.96 155.44C1123.93 153.616 1126.04 150.976 1127.29 147.52V139.6H1111.88C1102.67 139.6 1098.06 142.624 1098.06 148.672C1098.06 151.552 1099.16 153.856 1101.37 155.584C1103.68 157.216 1106.8 158.032 1110.73 158.032ZM1203.35 141.616L1192.55 152.272V172H1170.09V65.152H1192.55V125.632L1225.38 94.528H1252.17L1219.91 127.36L1255.05 172H1227.83L1203.35 141.616ZM1337.66 133.552C1337.66 133.84 1337.52 135.856 1337.23 139.6H1278.62C1279.68 144.4 1282.17 148.192 1286.11 150.976C1290.05 153.76 1294.94 155.152 1300.8 155.152C1304.83 155.152 1308.38 154.576 1311.45 153.424C1314.62 152.176 1317.55 150.256 1320.24 147.664L1332.19 160.624C1324.89 168.976 1314.24 173.152 1300.22 173.152C1291.49 173.152 1283.76 171.472 1277.04 168.112C1270.32 164.656 1265.13 159.904 1261.49 153.856C1257.84 147.808 1256.01 140.944 1256.01 133.264C1256.01 125.68 1257.79 118.864 1261.34 112.816C1264.99 106.672 1269.93 101.92 1276.17 98.56C1282.51 95.104 1289.57 93.376 1297.34 93.376C1304.93 93.376 1311.79 95.008 1317.93 98.272C1324.08 101.536 1328.88 106.24 1332.33 112.384C1335.89 118.432 1337.66 125.488 1337.66 133.552ZM1297.49 110.368C1292.4 110.368 1288.13 111.808 1284.67 114.688C1281.21 117.568 1279.1 121.504 1278.33 126.496H1316.49C1315.73 121.6 1313.61 117.712 1310.16 114.832C1306.7 111.856 1302.48 110.368 1297.49 110.368ZM1378.68 173.152C1372.25 173.152 1365.96 172.384 1359.82 170.848C1353.67 169.216 1348.78 167.2 1345.13 164.8L1352.62 148.672C1356.07 150.88 1360.25 152.704 1365.15 154.144C1370.04 155.488 1374.84 156.16 1379.55 156.16C1389.05 156.16 1393.8 153.808 1393.8 149.104C1393.8 146.896 1392.51 145.312 1389.91 144.352C1387.32 143.392 1383.34 142.576 1377.96 141.904C1371.63 140.944 1366.39 139.84 1362.27 138.592C1358.14 137.344 1354.54 135.136 1351.47 131.968C1348.49 128.8 1347 124.288 1347 118.432C1347 113.536 1348.39 109.216 1351.18 105.472C1354.06 101.632 1358.19 98.656 1363.56 96.544C1369.03 94.432 1375.47 93.376 1382.86 93.376C1388.33 93.376 1393.75 94 1399.13 95.248C1404.6 96.4 1409.11 98.032 1412.67 100.144L1405.18 116.128C1398.36 112.288 1390.92 110.368 1382.86 110.368C1378.06 110.368 1374.46 111.04 1372.06 112.384C1369.66 113.728 1368.46 115.456 1368.46 117.568C1368.46 119.968 1369.75 121.648 1372.35 122.608C1374.94 123.568 1379.07 124.48 1384.73 125.344C1391.07 126.4 1396.25 127.552 1400.28 128.8C1404.31 129.952 1407.82 132.112 1410.79 135.28C1413.77 138.448 1415.26 142.864 1415.26 148.528C1415.26 153.328 1413.82 157.6 1410.94 161.344C1408.06 165.088 1403.83 168.016 1398.27 170.128C1392.79 172.144 1386.27 173.152 1378.68 173.152Z" fill="white"/>
<defs>
<clipPath id="clip0_4_67">
<rect width="240" height="240" fill="white" transform="translate(260)"/>
</clipPath>
</defs>
</svg>
